<svg xmlns="http://www.w3.org/2000/svg" width="100%" viewBox="0 0 94 121" fill="none">
            <path d="M49.765 30.3838V30.3752C49.172 27.0792 47.9985 24.0779 46.2713 21.4478C46.2171 21.3701 44.9439 19.544 44.4309 18.8831C43.2389 17.3467 41.9582 16.1395 40.3898 15.0902C39.5926 14.5575 39.0907 13.6808 39.0489 12.7215C39.0439 12.5945 39.0378 12.4859 39.0341 12.407C38.9824 11.5069 38.9037 10.4045 38.8545 9.71527C38.8299 9.36384 38.8114 9.10737 38.8065 9.01982C38.6982 6.89403 37.9257 4.97909 36.6894 3.76699C36.0558 3.14676 31.525 0 25.2659 0C21.969 0 20.4263 0.218251 17.2008 1.58448C16.7358 1.78177 15.4551 1.81753 14.7084 1.65353C13.9937 1.49693 13.4708 1.45378 12.8459 1.50063L12.7746 1.50556C12.3071 1.54009 11.5997 1.59064 11.5345 2.21581C11.5087 2.46735 11.6674 2.72136 11.8064 2.94578C11.8544 3.02223 11.8987 3.09498 11.927 3.15293C11.9835 3.2676 12.0377 3.36008 12.0893 3.44886C12.3612 3.91126 12.6183 4.312 12.6319 7.72388C12.6355 8.71526 12.8484 9.44523 12.7733 11.9409C12.729 13.4354 11.0437 14.6352 10.4089 15.0951C10.3117 15.1654 10.2355 15.2209 10.1813 15.2591C7.59425 17.0865 5.47095 19.3146 3.87048 21.8818C2.30322 24.3973 1.02875 27.2568 0.471475 30.3801C-0.417949 35.3555 -0.0476634 40.009 1.57126 44.2101C3.43868 49.056 4.72915 51.0745 8.30529 54.4864C9.09261 55.2373 10.4889 56.2188 11.3635 56.7145C11.7154 56.9143 12.6331 57.6812 12.6306 58.7503C12.6269 60.4482 12.7942 61.3594 12.264 62.791C11.8937 63.7886 10.9145 64.627 11.2983 65.1819C11.5874 65.5999 12.6872 65.5013 13.1658 65.6283C13.8743 65.8157 13.7685 65.8835 15.7479 66.8034C15.898 66.8724 17.0101 67.2843 17.4505 67.3632C17.8109 67.4286 19.0424 67.5605 19.2982 67.2633C19.5922 66.923 19.4065 66.4211 19.0903 66.0599C18.8861 65.8268 18.2636 65.1129 18.0299 64.0253C17.9401 63.6048 17.9352 62.8182 17.934 61.1153C17.934 60.9957 17.9007 60.6443 17.9696 60.2164C18.0865 59.484 19.1801 59.7441 19.372 59.7824C20.7572 60.0623 22.0797 60.3015 23.3406 60.3816C24.0566 60.4272 24.7627 60.4396 25.2659 60.4396C25.6755 60.4396 25.9523 60.431 25.9917 60.4248C26.2697 60.3829 26.5096 60.3619 26.7224 60.3434C27.2698 60.2953 28.4176 60.0302 28.6083 58.7577L28.6181 58.6455C28.7584 57.0351 28.5775 56.0721 28.0166 55.426C27.6106 54.9599 27.4408 54.7749 26.4924 54.7268C26.3767 54.7207 25.8268 54.6923 25.6484 54.6985C25.0592 54.7194 24.0726 54.7564 22.306 54.4814C18.8972 53.9512 15.8734 52.7885 13.0612 50.9265C10.7841 49.4197 9.70525 47.4012 8.31145 44.9289C6.99638 42.5948 6.15739 39.9079 5.88552 37.1607C5.6075 34.353 5.92612 31.6045 6.83276 28.9929C7.71111 26.4639 8.31391 25.1556 10.1678 23.184C10.4778 22.8547 10.7989 22.5415 11.1236 22.2456C11.7424 21.6821 12.6749 21.4934 12.6626 22.3307C12.6515 23.0508 12.6983 24.2222 12.6872 24.9472C12.6011 30.4935 12.5125 35.4517 12.5297 37.4517C12.5408 38.792 12.5531 39.6749 12.5654 40.6108C12.5753 41.3506 12.5851 42.1299 12.5962 43.2027C12.6171 45.3223 13.0231 47.4493 16.053 48.5356C16.4614 48.802 16.828 48.6836 16.9683 48.6183C17.6252 48.3162 17.8011 48.2607 17.8134 45.7095C17.8134 45.601 17.8134 45.5085 17.8159 45.4357C17.8245 44.7662 17.8319 44.3506 17.8392 43.9844C17.8491 43.448 17.8565 43.0239 17.8651 42.0645C17.8823 39.9178 17.9389 37.6995 17.9389 35.5195C17.9389 34.3049 19.0227 34.5971 19.2896 34.7426C20.7019 35.5182 22.2421 35.7525 24.1365 36.7402C30.1632 39.8771 32.5953 41.7131 33.0394 46.8439C33.1858 48.5332 33.0898 50.7527 33.0468 51.9118C32.9582 54.2842 32.7897 56.6479 32.984 60.3952C33.1144 62.9193 33.8821 64.9797 35.3743 66.8194C36.8985 68.6986 38.3575 68.9637 40.5817 69.2165C40.8166 69.2436 41.1082 69.2781 41.4317 69.2781C42.7136 69.2781 44.1873 68.7146 44.4752 67.1339C44.4924 67.0401 44.5096 66.9464 44.5269 66.8552C44.7102 65.8737 44.4691 64.6529 43.9659 64.0167C43.6288 63.5913 43.0999 63.3669 42.3482 63.3336C41.743 63.3064 41.0602 63.4976 40.6948 63.8662C40.1425 64.4248 40.236 65.0488 40.2606 65.4322C40.3024 66.0821 39.9407 66.2091 39.7562 66.0636C38.9787 65.4507 38.1361 63.1079 38.018 61.5C37.906 59.987 37.8789 60.4149 37.9257 59.241C37.9638 58.2854 37.5616 57.4642 39.7021 55.7478C42.2387 53.7132 44.2611 52.0301 46.275 48.8155C46.2971 48.7859 46.318 48.7551 46.3352 48.7231C49.8351 43.395 50.989 37.2236 49.7662 30.3801L49.765 30.3838ZM38.4276 46.9117C38.264 42.5923 37.2552 40.8894 35.8824 38.5725C35.6548 38.1878 35.4186 37.7895 35.1738 37.358C34.7949 36.6884 34.8219 36.6502 35.2722 36.0176C35.5539 35.6218 35.9808 35.0238 36.5036 33.9831C37.5702 31.861 38.0303 29.8758 38.3673 28.0471C38.8938 25.2259 37.8617 23.5144 35.3029 22.9632C34.9831 22.8856 34.6669 22.941 34.3901 23.1235C33.8218 23.4984 33.7566 24.2962 33.6582 25.5009C33.6114 26.0693 33.5585 26.713 33.4454 27.4503C33.3359 28.1593 33.0394 28.9423 32.7761 29.6341C32.7368 29.7364 32.6986 29.8375 32.6617 29.9362C32.2078 31.1495 31.482 31.9855 30.5028 32.4208C29.3907 32.9153 27.164 32.7081 26.1208 32.1902C23.9938 31.1397 21.9665 29.9769 20.0696 28.9189C18.4396 28.0101 17.9266 24.3048 17.9327 22.6315C17.9524 17.65 18.0299 12.5501 18.0926 7.68072V7.59441C18.1037 6.85457 18.6069 6.28736 19.5086 5.99513C22.3196 5.0876 23.7183 4.82249 25.7407 4.81633C25.753 4.81633 25.7665 4.81633 25.7788 4.81633C28.0498 4.81633 29.8754 5.5315 31.0084 6.13323C32.3247 6.83238 33.2202 7.66839 33.3937 8.09873C33.4306 8.19121 33.4737 8.28492 33.5179 8.3848C33.7185 8.82993 33.9817 9.41933 34.0875 10.629C34.0875 10.6314 34.0875 10.6327 34.0875 10.6351C34.1343 11.2023 33.3888 11.6179 32.6064 11.3774C31.7871 11.1259 31.3159 11.0766 30.3133 10.9409C30.055 10.9064 29.7696 10.8583 29.4682 10.8065C28.6415 10.6672 27.7041 10.5094 26.651 10.4884C25.3274 10.4625 23.5916 10.5426 22.8461 11.0729C22.4893 11.3269 22.1141 11.6401 22.0317 12.0408C21.7697 13.3133 21.7967 14.1382 22.1313 14.9817C22.4512 15.7868 23.3824 16.2233 24.978 16.3158C25.2302 16.3306 25.4664 16.3257 25.6866 16.3195C28.6821 16.2369 31.3221 16.5057 34.4676 18.0853C37.2688 19.4922 39.4155 20.9472 41.4563 23.8498C43.0137 26.0632 43.5292 28.5194 43.7506 29.5687C43.7838 29.729 43.8121 29.861 43.8367 29.9608C44.9107 34.3752 44.832 40.6675 42.7259 43.9339C42.4232 44.4037 42.192 44.8069 41.6814 45.8069C41.4699 46.2224 40.2421 47.9043 39.3945 48.6762C38.6306 49.3717 38.4005 48.6614 38.4399 47.9327C38.4498 47.7526 38.4325 47.1127 38.4251 46.9105L38.4276 46.9117Z" fill="black"></path>
            <path d="M82.9271 5.11473C80.4975 2.34774 77.0985 1.37239 73.841 1.3576C70.6043 1.3428 67.7085 3.08634 65.4745 5.11473C62.9796 7.38109 62.351 10.1468 61.9795 14.2492C61.6375 18.0224 63.778 21.2419 66.1535 23.7882C68.4577 26.2567 71.2071 26.9694 74.3539 26.9818C78.4234 26.999 81.2959 25.9657 84.359 22.1655C86.037 20.0828 86.7764 17.8929 87.0187 14.5378C87.2881 10.7917 85.1943 7.69798 82.9259 5.11596L82.9271 5.11473ZM73.7475 9.87063C73.3587 10.2233 72.9601 10.4107 72.5936 10.4107C72.2762 10.4107 71.7988 10.3552 71.5417 10.0901C71.169 9.70663 71.0669 8.98653 71.8038 8.12092C71.837 8.0827 71.8837 8.06174 71.9329 8.06174C71.9477 8.06174 71.9612 8.06173 71.976 8.0679C72.0375 8.08393 72.0867 8.13572 72.099 8.1986C72.2134 8.77321 72.3204 9.1049 72.5382 9.29972C72.7559 9.49455 73.0844 9.55127 73.6429 9.5747C73.7118 9.57839 73.7721 9.62279 73.7954 9.6869C73.8176 9.75102 73.8016 9.82377 73.7487 9.87063H73.7475ZM74.1571 5.75345C73.9431 6.07774 73.665 6.27257 73.3538 6.32312C73.0536 6.37121 72.5874 6.37121 72.3008 6.14433C72.0203 5.92361 72.0068 5.5463 71.9785 5.23557C71.944 4.86442 72.1052 4.46614 72.4398 4.08389C72.4693 4.04936 72.5124 4.0321 72.5566 4.0321C72.5726 4.0321 72.5886 4.03457 72.6046 4.03827C72.6637 4.05799 72.7055 4.10978 72.7116 4.17144C72.7608 4.70658 72.8396 5.02718 73.0315 5.222C73.2234 5.41682 73.5297 5.48341 74.0366 5.51177C74.0931 5.51547 74.1423 5.54753 74.167 5.59808C74.1916 5.64741 74.1879 5.70659 74.1571 5.75345ZM76.3739 4.3194C76.4071 4.27748 76.4551 4.25405 76.5068 4.25405C76.5142 4.25405 76.5215 4.25405 76.5277 4.25405C76.5867 4.26145 76.6372 4.29967 76.6618 4.35393C76.7134 4.4723 76.7565 4.59807 76.7996 4.72015C76.8931 4.98895 76.9816 5.24296 77.1428 5.40203C77.3002 5.55616 77.5549 5.63754 77.8243 5.72262C77.9535 5.76331 78.0863 5.80647 78.2155 5.85826C78.2709 5.88046 78.3102 5.93224 78.3188 5.9902C78.3274 6.04938 78.3053 6.10857 78.2586 6.14803C77.9153 6.42793 77.5586 6.57713 77.2277 6.57713C76.9164 6.57713 76.4674 6.50192 76.214 6.25407C75.6764 5.72879 75.8363 5.00745 76.3714 4.31817L76.3739 4.3194ZM77.8809 9.571C77.3371 10.2381 76.4994 10.4502 75.9286 9.93475C75.5238 9.56976 75.2188 8.89282 75.9938 7.7658C76.0258 7.71894 76.0774 7.69182 76.1328 7.69182C76.1451 7.69182 76.1586 7.69428 76.1722 7.69675C76.2398 7.71401 76.2915 7.77073 76.3013 7.83978C76.3801 8.42425 76.4748 8.76951 76.6851 8.9779C76.8955 9.18628 77.2203 9.25903 77.7616 9.29356C77.8243 9.29849 77.8797 9.33672 77.9055 9.3959C77.9301 9.45509 77.9215 9.52168 77.8809 9.571ZM80.5184 12.8078C79.8762 13.5045 79.0606 13.6426 78.4541 13.1395C77.8243 12.6154 77.9842 11.8522 78.6042 11.0704C78.6375 11.0285 78.6854 11.0063 78.7359 11.0063C78.7531 11.0063 78.7703 11.0087 78.7863 11.0137C78.8527 11.0346 78.9007 11.0926 78.9044 11.1629C78.945 11.7091 79.0975 12.0951 79.3559 12.3109C79.5921 12.5069 79.9267 12.576 80.3745 12.5242C80.4446 12.5168 80.5135 12.5538 80.5455 12.6154C80.5774 12.6783 80.5664 12.756 80.5184 12.8078ZM80.4495 8.92857C80.1481 8.6869 79.9894 8.25902 79.9697 7.91623C79.9476 7.53645 80.1174 7.13817 80.4483 6.79908C80.4815 6.76456 80.5246 6.74729 80.5688 6.74729C80.5873 6.74729 80.6033 6.75099 80.6205 6.75593C80.682 6.77565 80.7263 6.82744 80.7374 6.89033C80.9145 8.02721 81.088 8.19244 82.1668 8.25039C82.2284 8.25409 82.2837 8.29108 82.3108 8.34781C82.3206 8.37 82.3268 8.39589 82.3268 8.42055C82.3268 8.45508 82.3157 8.49084 82.2936 8.52043C82.0438 8.86446 81.7351 9.06914 81.4004 9.11353C81.0831 9.15546 80.7448 9.16656 80.4483 8.92857H80.4495ZM84.1954 12.3244C83.9494 12.6277 83.6517 12.8041 83.3318 12.8349C83.0366 12.8645 82.5199 12.7634 82.328 12.4872C81.8507 11.8016 81.9208 11.391 82.5039 10.645C82.5322 10.608 82.5765 10.587 82.6208 10.587C82.6343 10.587 82.6479 10.5895 82.6614 10.5932C82.7217 10.6117 82.7635 10.661 82.7696 10.7227C82.8828 11.8189 83.055 11.9964 84.0909 12.0803C84.1462 12.0852 84.1942 12.1197 84.2163 12.1703C84.2385 12.2208 84.2299 12.28 84.1954 12.3244Z" fill="black"></path>
            <path d="M75.0207 81.8936C75.5189 80.5323 76.4982 86.4472 69.4394 95.6471C68.1452 97.3327 67.0663 98.8382 65.9469 99.948C65.6824 100.209 65.9223 100.657 66.2852 100.579C76.3739 98.4104 93.9373 87.1279 93.9373 64.6961C93.9373 58.9451 91.5482 53.3643 87.5305 49.22C86.1563 47.8032 84.4452 46.7674 82.8668 45.5233C79.784 43.0929 75.6383 42.3703 71.3523 42.3703C63.9478 42.3703 59.3691 47.7773 58.0614 52.2126C57.9999 52.6393 57.4389 52.8365 57.1695 53.0955C56.0635 53.8353 55.8507 54.1017 55.2898 54.7429C54.7399 55.3729 54.3757 56.2373 54.1285 57.024C53.8258 57.9858 54.3388 58.5407 55.3107 58.3545C56.3342 58.1584 57.3663 58.008 58.4095 58.1239C59.8538 58.2447 61.5982 58.2324 62.2132 59.5962C63.0325 61.4174 61.763 64.0944 61.5182 64.6394C61.1393 65.4779 60.4787 66.3287 59.6569 67.1511C59.0677 67.7418 55.6428 71.1733 52.5341 74.2819C50.0824 76.7344 49.5374 77.5495 45.8333 80.7394C37.1654 88.2044 35.175 90.9775 34.5341 91.6224C31.0367 95.1341 27.4002 99.276 23.6002 102.676C16.6865 108.862 14.6088 112.265 14.2655 112.741C13.9223 113.216 13.6504 113.764 13.851 114.175C14.1991 114.89 15.8254 114.768 16.1649 114.789C19.6513 114.996 19.3671 114.825 25.1834 114.472C25.7542 114.438 26.5576 113.604 26.7372 112.796C26.9844 111.685 27.1185 111.408 27.4888 110.365C29.0844 105.393 31.7612 101.069 34.3089 97.7359C37.4521 93.6212 40.3971 91.017 40.8646 90.5706C42.55 88.9762 34.3065 98.2476 31.1892 108.978C30.7562 110.47 30.1571 114.026 30.7328 114.603C31.3786 115.25 34.1835 115.118 35.4764 114.771C39.023 113.819 42.267 112.674 45.2342 111.392C47.4153 110.45 50.6261 108.75 52.5157 107.679C56.7217 105.298 59.1378 103.433 61.9586 100.667C73.2542 89.5928 74.6578 82.8603 75.0182 81.8948L75.0207 81.8936ZM68.2805 48.162C69.3754 47.9364 70.2193 49.1583 70.2193 50.1263C70.2193 51.0942 69.4123 51.6627 68.47 51.8785C67.1906 52.1719 66.5324 50.8821 66.5324 49.9142C66.5324 48.9462 67.3345 48.3568 68.2805 48.162Z" fill="black"></path>
            <path d="M81.4743 117.623C81.4743 117.623 79.3128 117.216 77.2719 117.377C76.5363 117.435 74.3244 117.226 74.3244 117.226C73.3317 117.226 72.3807 116.829 71.6807 116.123L67.0257 111.429C66.7354 111.137 64.3611 109.486 66.4611 107.777C68.2055 106.356 70.752 103.97 72.334 101.867C72.5419 101.589 72.302 101.219 71.896 101.314C71.7484 101.331 70.4813 101.989 69.0605 102.445C66.9101 103.137 64.5789 103.503 62.7435 103.656C62.0336 103.715 61.1196 104.761 60.8662 105.013L59.5376 106.345C58.8093 107.075 58.8093 108.259 59.5376 108.989C59.5376 108.989 63.2774 113.169 64.7954 114.599C66.4746 116.181 65.6258 117.621 64.6773 117.628C61.6412 117.65 57.4057 117.62 57.4057 117.62C56.9111 117.62 56.4363 117.816 56.0857 118.168L54.3831 119.874C54.0313 120.227 54.2798 120.831 54.778 120.831C54.778 120.831 59.0898 120.94 62.7804 120.831C65.6405 120.747 70.3275 121.053 74.2248 120.831C76.6876 120.692 84.0909 120.831 84.0909 120.831C84.5891 120.831 84.8388 120.227 84.487 119.874L82.7881 118.17C82.4387 117.82 81.9651 117.623 81.4706 117.623H81.4743Z" fill="black"></path>
            <path d="M89.5935 121H88.9243V118.332H87.9598V117.782H90.5296V118.332H89.5935V121ZM92.1141 121L91.515 118.536V121H90.8741V117.782H91.8386L92.4438 120.253L93.0355 117.782H94V121H93.3591V118.536L92.7747 121H92.1129H92.1141Z" fill="black"></path>
          </svg>