<svg xmlns="http://www.w3.org/2000/svg" width="100%" viewBox="0 0 460 171" fill="none">
              <path d="M126.64 44.1001C126.64 43.9017 126.771 43.7189 126.959 43.6614C130.987 42.3767 133.98 38.9663 134.727 34.7934L135.386 31.1166C135.422 30.9234 135.589 30.7772 135.788 30.7772C135.986 30.7772 136.154 30.9182 136.19 31.1166L136.848 34.7934C137.596 38.9715 140.589 42.3767 144.617 43.6614C144.81 43.7241 144.936 43.9017 144.936 44.1001C144.936 44.2986 144.805 44.4814 144.617 44.5388C140.589 45.8236 137.596 49.234 136.848 53.4069L136.19 57.0837C136.154 57.2769 135.986 57.4231 135.788 57.4231C135.589 57.4231 135.422 57.2821 135.386 57.0837L134.727 53.4069C133.98 49.2288 130.987 45.8236 126.959 44.5388C126.765 44.4762 126.64 44.2986 126.64 44.1001Z" fill="black"></path>
              <path d="M13.7297 44.1001C13.7297 43.9017 13.8603 43.7189 14.0484 43.6614C18.0764 42.3767 21.07 38.9663 21.8171 34.7934L22.4754 31.1166C22.5119 30.9234 22.6791 30.7772 22.8776 30.7772C23.0762 30.7772 23.2433 30.9182 23.2799 31.1166L23.9382 34.7934C24.6853 38.9715 27.6789 42.3767 31.7069 43.6614C31.9002 43.7241 32.0256 43.9017 32.0256 44.1001C32.0256 44.2986 31.895 44.4814 31.7069 44.5388C27.6789 45.8236 24.6853 49.234 23.9382 53.4069L23.2799 57.0837C23.2433 57.2769 23.0762 57.4231 22.8776 57.4231C22.6791 57.4231 22.5119 57.2821 22.4754 57.0837L21.8171 53.4069C21.07 49.2288 18.0764 45.8236 14.0484 44.5388C13.8551 44.4762 13.7297 44.2986 13.7297 44.1001Z" fill="black"></path>
              <path d="M0 104.939C0 104.74 0.130611 104.557 0.31869 104.5C4.34672 103.215 7.34031 99.8048 8.08741 95.6319L8.74568 91.9552C8.78225 91.7619 8.94944 91.6157 9.14796 91.6157C9.34649 91.6157 9.51367 91.7567 9.55024 91.9552L10.2085 95.6319C10.9556 99.81 13.9492 103.215 17.9772 104.5C18.1705 104.563 18.2959 104.74 18.2959 104.939C18.2959 105.137 18.1653 105.32 17.9772 105.377C13.9492 106.662 10.9556 110.073 10.2085 114.245L9.55024 117.922C9.51367 118.115 9.34649 118.262 9.14796 118.262C8.94944 118.262 8.78225 118.121 8.74568 117.922L8.08741 114.245C7.34031 110.067 4.34672 106.662 0.31869 105.377C0.125386 105.315 0 105.137 0 104.939Z" fill="black"></path>
              <path d="M140.532 104.939C140.532 104.74 140.662 104.557 140.851 104.5C144.879 103.215 147.872 99.8048 148.619 95.6319L149.278 91.9552C149.314 91.7619 149.481 91.6157 149.68 91.6157C149.878 91.6157 150.046 91.7567 150.082 91.9552L150.74 95.6319C151.487 99.81 154.481 103.215 158.509 104.5C158.702 104.563 158.828 104.74 158.828 104.939C158.828 105.137 158.697 105.32 158.509 105.377C154.481 106.662 151.487 110.073 150.74 114.245L150.082 117.922C150.046 118.115 149.878 118.262 149.68 118.262C149.481 118.262 149.314 118.121 149.278 117.922L148.619 114.245C147.872 110.067 144.879 106.662 140.851 105.377C140.657 105.315 140.532 105.137 140.532 104.939Z" fill="black"></path>
              <path d="M101.579 153.891C101.579 153.692 101.709 153.509 101.897 153.452C105.925 152.167 108.919 148.757 109.666 144.584L110.324 140.907C110.361 140.714 110.528 140.568 110.727 140.568C110.925 140.568 111.092 140.709 111.129 140.907L111.787 144.584C112.534 148.762 115.528 152.167 119.556 153.452C119.749 153.515 119.874 153.692 119.874 153.891C119.874 154.089 119.744 154.272 119.556 154.329C115.528 155.614 112.534 159.024 111.787 163.197L111.129 166.874C111.092 167.067 110.925 167.214 110.727 167.214C110.528 167.214 110.361 167.073 110.324 166.874L109.666 163.197C108.919 159.019 105.925 155.614 101.897 154.329C101.704 154.267 101.579 154.089 101.579 153.891Z" fill="black"></path>
              <path d="M38.7964 153.891C38.7964 153.692 38.927 153.509 39.1151 153.452C43.1432 152.167 46.1367 148.757 46.8838 144.584L47.5421 140.907C47.5787 140.714 47.7459 140.568 47.9444 140.568C48.1429 140.568 48.3101 140.709 48.3467 140.907L49.005 144.584C49.7521 148.762 52.7456 152.167 56.7737 153.452C56.967 153.515 57.0924 153.692 57.0924 153.891C57.0924 154.089 56.9618 154.272 56.7737 154.329C52.7456 155.614 49.7521 159.024 49.005 163.197L48.3467 166.874C48.3101 167.067 48.1429 167.214 47.9444 167.214C47.7459 167.214 47.5787 167.073 47.5421 166.874L46.8838 163.197C46.1367 159.019 43.1432 155.614 39.1151 154.329C38.9218 154.267 38.7964 154.089 38.7964 153.891Z" fill="black"></path>
              <path d="M70.2685 16.9266C70.2685 16.7281 70.3991 16.5453 70.5872 16.4879C74.6152 15.2031 77.6088 11.7927 78.3559 7.61979L79.0142 3.94305C79.0507 3.74981 79.2179 3.60358 79.4164 3.60358C79.615 3.60358 79.7822 3.74459 79.8187 3.94305L80.477 7.61979C81.2241 11.7979 84.2177 15.2031 88.2457 16.4879C88.439 16.5505 88.5644 16.7281 88.5644 16.9266C88.5644 17.125 88.4338 17.3078 88.2457 17.3653C84.2177 18.65 81.2241 22.0604 80.477 26.2333L79.8187 29.9101C79.7822 30.1033 79.615 30.2495 79.4164 30.2495C79.2179 30.2495 79.0507 30.1085 79.0142 29.9101L78.3559 26.2333C77.6088 22.0552 74.6152 18.65 70.5872 17.3653C70.3939 17.3026 70.2685 17.125 70.2685 16.9266Z" fill="black"></path>
              <path d="M288.315 85.4842C289.37 82.6118 291.439 95.0887 276.513 114.491C273.775 118.047 271.492 121.223 269.126 123.563C268.567 124.116 269.073 125.056 269.841 124.894C291.178 120.319 328.318 96.5249 328.318 49.2182C328.318 37.0912 323.266 25.3193 314.771 16.5818C311.867 13.5945 308.246 11.4114 304.908 8.78441C298.388 3.661 289.621 2.13598 280.562 2.13598C264.904 2.13598 255.223 13.537 252.455 22.896C252.324 23.7943 251.138 24.2121 250.569 24.7605C248.228 26.3221 247.779 26.8809 246.593 28.2336C245.428 29.5601 244.66 31.388 244.137 33.0436C243.5 35.0752 244.581 36.2399 246.64 35.8482C248.803 35.4356 250.986 35.117 253.191 35.3625C256.247 35.6184 259.936 35.5923 261.232 38.47C262.966 42.3086 260.281 47.9543 259.764 49.1033C258.964 50.8737 257.564 52.6651 255.83 54.399C254.586 55.6473 247.34 62.8806 240.768 69.4403C235.585 74.6107 234.43 76.3289 226.599 83.0609C208.266 98.802 204.061 104.651 202.702 106.014C195.305 113.42 187.614 122.158 179.584 129.328C164.966 142.375 160.573 149.556 159.846 150.553C159.12 151.556 158.546 152.71 158.969 153.577C159.705 155.087 163.143 154.831 163.864 154.872C171.236 155.311 170.635 154.951 182.933 154.204C184.14 154.131 185.838 152.371 186.219 150.668C186.742 148.323 187.024 147.738 187.808 145.54C191.183 135.058 196.841 125.934 202.227 118.904C208.872 110.229 215.1 104.735 216.087 103.79C219.65 100.426 202.222 119.98 195.629 142.61C194.714 145.759 193.445 153.253 194.662 154.475C196.026 155.839 201.96 155.562 204.693 154.831C212.19 152.82 219.055 150.407 225.324 147.707C229.937 145.717 236.729 142.134 240.721 139.878C249.612 134.854 254.722 130.921 260.688 125.088C284.574 101.732 287.542 87.5315 288.305 85.4999L288.315 85.4842ZM274.063 14.3413C276.377 13.8661 278.164 16.446 278.164 18.4829C278.164 20.5197 276.456 21.7209 274.465 22.1805C271.759 22.7968 270.369 20.0758 270.369 18.0389C270.369 16.0021 272.067 14.7539 274.068 14.3413H274.063Z" fill="black"></path>
              <path d="M301.961 160.842C301.961 160.842 297.39 159.985 293.074 160.325C291.518 160.45 286.842 160.006 286.842 160.006C284.741 160.006 282.73 159.171 281.252 157.682L271.409 147.78C270.798 147.164 265.772 143.68 270.212 140.077C273.901 137.084 279.287 132.049 282.631 127.61C283.07 127.025 282.563 126.247 281.706 126.445C281.393 126.482 278.712 127.866 275.708 128.832C271.163 130.289 266.231 131.062 262.35 131.386C260.85 131.511 258.917 133.715 258.379 134.248L255.568 137.058C254.027 138.599 254.027 141.095 255.568 142.63C255.568 142.63 263.478 151.446 266.686 154.465C270.238 157.802 268.441 160.837 266.435 160.852C260.014 160.899 251.06 160.837 251.06 160.837C250.015 160.837 249.006 161.249 248.27 161.991L244.67 165.589C243.923 166.336 244.451 167.605 245.506 167.605C245.506 167.605 254.623 167.835 262.428 167.605C268.478 167.428 278.389 168.07 286.628 167.605C291.836 167.313 307.489 167.605 307.489 167.605C308.544 167.605 309.072 166.331 308.325 165.589L304.73 161.996C303.993 161.254 302.99 160.842 301.946 160.842H301.961Z" fill="black"></path>
              <path d="M319.134 167.966H317.718V162.341H315.681V161.181H321.114V162.341H319.134V167.966ZM324.463 167.966L323.199 162.769V167.966H321.845V161.176H323.883L325.163 166.388L326.412 161.176H328.449V167.966H327.096V162.769L325.858 167.966H324.458H324.463Z" fill="black"></path>
              <path d="M430.32 76.94C429.97 75.2792 429.15 71.3935 426.679 67.8891C423.439 63.2984 420.033 60.9952 415.587 58.7652C410.593 56.2635 406.408 55.8405 401.654 55.971C401.303 55.9815 400.927 55.9867 400.53 55.9658C397.996 55.8196 396.518 55.1302 396.011 53.8559C395.478 52.5241 395.436 51.2184 395.849 49.2025C395.98 48.5705 396.581 48.0744 397.145 47.6723C398.326 46.8314 401.079 46.7061 403.179 46.7478C404.851 46.7792 406.34 47.0299 407.651 47.2492C408.132 47.3276 408.586 47.4059 408.994 47.4633C410.582 47.6775 411.329 47.7558 412.63 48.158C413.873 48.5392 415.054 47.8812 414.981 46.9829V46.9724C414.814 45.0557 414.396 44.1261 414.077 43.421C414.004 43.2591 413.941 43.1129 413.884 42.9666C413.607 42.2825 412.186 40.9611 410.096 39.8539C408.299 38.9034 405.399 37.7701 401.8 37.7701H401.737C398.524 37.7806 396.309 38.1984 391.847 39.6398C390.416 40.0994 389.616 40.9977 389.601 42.1676V42.3034C389.502 50.012 389.376 58.081 389.345 65.9672C389.334 68.6203 390.149 74.4801 392.735 75.9216C395.745 77.5928 398.963 79.4364 402.338 81.0972C403.994 81.9172 407.526 82.2462 409.292 81.4628C410.843 80.7734 411.998 79.4521 412.719 77.5301C412.776 77.3735 412.839 77.2116 412.902 77.0497C413.32 75.9529 413.79 74.7151 413.962 73.5923C414.145 72.4224 414.229 71.404 414.302 70.5057C414.459 68.5994 414.558 67.3355 415.462 66.7402C415.901 66.4477 416.402 66.3641 416.909 66.4842C420.968 67.3564 422.609 70.067 421.773 74.5323C421.24 77.4257 420.509 80.5697 418.816 83.9279C417.985 85.573 417.311 86.5235 416.862 87.1503C416.146 88.153 416.104 88.2104 416.705 89.2707C417.092 89.9548 417.468 90.5816 417.828 91.1926C420.007 94.8589 421.606 97.5538 421.867 104.39C421.877 104.709 421.903 105.722 421.888 106.009C421.825 107.163 422.191 108.286 423.403 107.19C424.745 105.967 426.694 103.309 427.034 102.646C427.844 101.063 428.209 100.426 428.69 99.6846C432.034 94.5142 432.159 84.5546 430.451 77.5667C430.414 77.41 430.367 77.2011 430.315 76.9452L430.32 76.94Z" fill="black"></path>
              <path d="M400.75 0C368.024 0 341.5 38.282 341.5 85.5C341.5 132.718 368.029 171 400.75 171C433.47 171 460 132.718 460 85.5C460 38.282 433.47 0 400.75 0ZM434.416 107.258C434.39 107.31 434.353 107.357 434.322 107.404C431.125 112.491 427.917 115.154 423.889 118.371C420.493 121.087 421.13 122.388 421.068 123.897C420.995 125.756 421.036 125.082 421.214 127.474C421.402 130.018 422.739 133.726 423.972 134.697C424.265 134.927 424.84 134.723 424.772 133.7C424.735 133.094 424.584 132.107 425.461 131.219C426.005 130.671 426.997 130.373 427.912 130.373C427.969 130.373 428.027 130.373 428.084 130.373C429.275 130.425 430.116 130.78 430.649 131.454C431.449 132.462 431.835 134.394 431.537 135.946C431.511 136.092 431.485 136.238 431.459 136.389C430.999 138.891 428.664 139.779 426.626 139.779C426.114 139.779 425.649 139.727 425.279 139.68C421.747 139.278 419.432 138.86 417.013 135.888C414.647 132.979 413.43 129.715 413.221 125.72C412.912 119.792 413.179 116.047 413.32 112.292C413.388 110.459 413.539 106.944 413.309 104.27C412.604 96.149 408.743 93.2452 399.183 88.2784C396.173 86.7169 393.728 86.3461 391.492 85.1187C391.069 84.8889 389.345 84.4241 389.345 86.3461C389.345 89.7982 389.256 93.3079 389.23 96.7026C389.22 98.2224 389.204 98.8909 389.188 99.7422C389.178 100.322 389.167 100.98 389.152 102.04C389.152 102.155 389.152 102.301 389.152 102.474C389.136 106.511 388.854 106.6 387.809 107.08C387.584 107.184 387.004 107.367 386.357 106.949C381.55 105.231 380.902 101.863 380.871 98.5096C380.855 96.8123 380.834 95.5797 380.824 94.4098C380.803 92.9318 380.787 91.5322 380.766 89.4118C380.74 86.2416 380.881 78.3972 381.017 69.6179C381.033 68.4689 380.96 66.6149 380.981 65.4764C381.002 64.1498 379.523 64.4527 378.541 65.3406C378.024 65.8106 377.517 66.3068 377.026 66.8238C374.084 69.9469 373.128 72.0151 371.733 76.0157C370.297 80.152 369.79 84.4972 370.229 88.9417C370.662 93.2922 371.989 97.5434 374.079 101.236C376.289 105.148 378.003 108.344 381.618 110.731C386.08 113.676 390.881 115.52 396.288 116.355C399.094 116.789 400.656 116.731 401.591 116.7C401.878 116.69 402.746 116.737 402.928 116.747C404.433 116.82 404.705 117.113 405.347 117.854C406.241 118.878 406.523 120.398 406.303 122.952L406.288 123.129C405.985 125.145 404.167 125.563 403.299 125.636C402.96 125.667 402.578 125.699 402.14 125.767C402.077 125.777 401.638 125.788 400.985 125.788C400.186 125.788 399.068 125.767 397.929 125.699C395.928 125.573 393.833 125.192 391.633 124.748C391.33 124.686 389.59 124.278 389.408 125.432C389.303 126.106 389.355 126.665 389.355 126.853C389.355 129.548 389.366 130.796 389.507 131.459C389.878 133.178 390.865 134.306 391.189 134.676C391.691 135.251 391.988 136.045 391.518 136.583C391.111 137.053 389.157 136.844 388.587 136.739C387.887 136.614 386.121 135.961 385.886 135.852C382.746 134.394 382.914 134.29 381.785 133.992C381.028 133.789 379.283 133.945 378.823 133.287C378.217 132.41 379.769 131.083 380.354 129.506C381.195 127.239 380.928 125.798 380.934 123.108C380.934 121.416 379.481 120.199 378.922 119.886C377.533 119.103 375.317 117.546 374.069 116.361C368.395 110.96 366.347 107.764 363.385 100.097C360.814 93.4489 360.229 86.0849 361.64 78.2092C362.528 73.2685 364.545 68.7405 367.031 64.7609C369.571 60.6976 372.94 57.1723 377.047 54.279C377.13 54.2163 377.256 54.1275 377.407 54.0179C378.415 53.2919 381.085 51.3909 381.158 49.025C381.273 45.0767 380.939 43.9173 380.934 42.3505C380.913 36.9502 380.505 36.3183 380.072 35.5871C379.988 35.4461 379.904 35.2999 379.816 35.1171C379.769 35.0283 379.701 34.9134 379.622 34.7881C379.398 34.4329 379.147 34.0308 379.189 33.6286C379.288 32.6416 380.411 32.558 381.158 32.5058L381.273 32.4953C382.266 32.4222 383.091 32.4901 384.23 32.7356C385.416 32.9915 387.448 32.9393 388.185 32.6259C393.305 30.4637 395.75 30.119 400.985 30.119C410.917 30.119 418.105 35.1014 419.114 36.0833C421.078 38 422.301 41.0291 422.478 44.3977C422.483 44.5335 422.515 44.9409 422.551 45.4997C422.63 46.5913 422.755 48.3356 422.833 49.7614C422.844 49.8867 422.849 50.0539 422.86 50.2576C422.922 51.7774 423.722 53.1614 424.986 54.0074C427.473 55.6682 429.505 57.5797 431.396 60.0082C432.211 61.0528 434.233 63.9461 434.317 64.0662C437.06 68.2287 438.919 72.9813 439.86 78.1935V78.204C441.803 89.0357 439.97 98.8021 434.416 107.237V107.258Z" fill="black"></path>
            </svg>