<svg xmlns="http://www.w3.org/2000/svg" width="100%" viewBox="0 0 674 243" fill="none">
            <path d="M159.398 96.7002C159.051 96.7002 158.661 96.5702 158.228 96.3102C157.795 96.0502 157.491 95.4869 157.318 94.6202L137.688 14.9302C137.601 14.3235 137.341 14.0635 136.908 14.1502C136.475 14.1502 136.258 14.4535 136.258 15.0602L133.658 86.8202C133.571 89.2469 133.961 91.1102 134.828 92.4102C135.695 93.6235 137.211 94.4035 139.378 94.7502L141.068 95.0102C142.195 95.0969 142.758 95.6169 142.758 96.5702C142.758 97.5235 142.108 98.0002 140.808 98.0002H122.218C120.918 98.0002 120.268 97.5235 120.268 96.5702C120.268 95.6169 120.831 95.0969 121.958 95.0102L123.648 94.7502C125.901 94.4035 127.418 93.6235 128.198 92.4102C129.065 91.1102 129.541 89.2469 129.628 86.8202L132.228 12.9802C132.315 11.1602 132.055 9.94686 131.448 9.34019C130.841 8.73353 129.541 8.25686 127.548 7.91019L124.558 7.39019C123.431 7.13019 122.868 6.61019 122.868 5.83019C122.868 4.87686 123.518 4.40019 124.818 4.40019H140.418C143.105 4.40019 144.751 5.70019 145.358 8.30019L161.088 73.1702C161.261 73.7769 161.521 74.0802 161.868 74.0802C162.301 74.0802 162.561 73.7769 162.648 73.1702L179.028 7.65019C179.548 5.48353 180.935 4.40019 183.188 4.40019H198.528C199.828 4.40019 200.478 4.87686 200.478 5.83019C200.478 6.61019 199.915 7.13019 198.788 7.39019L195.798 7.91019C193.978 8.25686 192.765 8.73353 192.158 9.34019C191.551 9.94686 191.291 11.1602 191.378 12.9802L193.978 89.4202C194.065 91.2402 194.368 92.4535 194.888 93.0602C195.408 93.6669 196.578 94.1435 198.398 94.4902L201.388 95.0102C202.515 95.2702 203.078 95.7902 203.078 96.5702C203.078 97.5235 202.428 98.0002 201.128 98.0002H177.598C176.298 98.0002 175.648 97.5235 175.648 96.5702C175.648 95.7902 176.211 95.2702 177.338 95.0102L180.328 94.4902C182.148 94.1435 183.361 93.6669 183.968 93.0602C184.575 92.4535 184.835 91.2402 184.748 89.4202L182.538 15.0602C182.538 14.4535 182.321 14.1502 181.888 14.1502C181.541 14.0635 181.281 14.2802 181.108 14.8002L161.348 94.6202C161.175 95.4869 160.871 96.0502 160.438 96.3102C160.091 96.5702 159.745 96.7002 159.398 96.7002Z" fill="currentColor"></path>
            <path d="M238.48 99.1702C234.32 99.1702 230.42 97.9569 226.78 95.5302C223.14 93.0169 219.933 89.5935 217.16 85.2602C214.473 80.9269 212.35 75.8569 210.79 70.0502C209.316 64.1569 208.58 57.8302 208.58 51.0702C208.58 44.3102 209.316 38.0269 210.79 32.2202C212.35 26.4135 214.473 21.3435 217.16 17.0102C219.933 12.5902 223.14 9.16686 226.78 6.74019C230.42 4.31353 234.32 3.10019 238.48 3.10019C242.64 3.10019 246.496 4.31353 250.05 6.74019C253.69 9.16686 256.896 12.5902 259.67 17.0102C262.443 21.3435 264.566 26.4135 266.04 32.2202C267.6 38.0269 268.38 44.3102 268.38 51.0702C268.38 57.8302 267.6 64.1569 266.04 70.0502C264.566 75.8569 262.443 80.9269 259.67 85.2602C256.896 89.5935 253.69 93.0169 250.05 95.5302C246.496 97.9569 242.64 99.1702 238.48 99.1702ZM238.48 95.6602C244.633 95.6602 249.443 91.9769 252.91 84.6102C256.376 77.2435 258.11 66.0635 258.11 51.0702C258.11 36.0769 256.376 24.9402 252.91 17.6602C249.443 10.2935 244.633 6.6102 238.48 6.6102C232.413 6.6102 227.603 10.2935 224.05 17.6602C220.583 24.9402 218.85 36.0769 218.85 51.0702C218.85 66.0635 220.583 77.2435 224.05 84.6102C227.603 91.9769 232.413 95.6602 238.48 95.6602Z" fill="currentColor"></path>
            <path d="M330.815 99.1702C323.275 99.1702 318.465 94.2302 316.385 84.3502L313.395 69.9202C312.442 65.2402 311.359 61.6869 310.145 59.2602C309.019 56.8335 307.415 55.1869 305.335 54.3202C303.342 53.4535 300.569 53.0202 297.015 53.0202C295.802 53.0202 294.848 53.3669 294.155 54.0602C293.462 54.6669 293.115 55.4469 293.115 56.4002V88.9002C293.115 90.7202 293.462 91.9769 294.155 92.6702C294.848 93.2769 296.408 93.7969 298.835 94.2302L303.645 95.0102C304.599 95.1835 305.075 95.6602 305.075 96.4402C305.075 97.4802 304.425 98.0002 303.125 98.0002H276.735C275.435 98.0002 274.785 97.5235 274.785 96.5702C274.785 95.7902 275.348 95.2702 276.475 95.0102L279.465 94.4902C281.285 94.1435 282.455 93.6669 282.975 93.0602C283.582 92.4535 283.885 91.2402 283.885 89.4202V12.9802C283.885 11.1602 283.582 9.94686 282.975 9.34019C282.455 8.73353 281.285 8.25686 279.465 7.91019L276.475 7.39019C275.348 7.13019 274.785 6.61019 274.785 5.83019C274.785 4.87686 275.435 4.40019 276.735 4.40019H303.125C308.238 4.40019 312.788 5.39686 316.775 7.39019C320.762 9.38353 323.882 12.1569 326.135 15.7102C328.388 19.1769 329.515 23.2069 329.515 27.8002C329.515 33.2602 327.868 38.2002 324.575 42.6202C321.282 46.9535 317.122 50.0302 312.095 51.8502C311.488 52.0235 311.142 52.3269 311.055 52.7602C311.055 53.1069 311.358 53.4102 311.965 53.6702C314.738 54.9702 316.905 56.7902 318.465 59.1302C320.112 61.4702 321.369 64.5902 322.235 68.4902L325.095 81.7502C326.048 86.2569 327.175 89.4635 328.475 91.3702C329.775 93.2769 331.422 94.2302 333.415 94.2302C334.108 94.2302 334.715 94.1435 335.235 93.9702C335.842 93.7102 336.578 93.2769 337.445 92.6702C338.138 92.2369 338.789 92.1502 339.395 92.4102C340.002 92.5835 340.305 93.0169 340.305 93.7102C340.305 95.1835 339.352 96.4835 337.445 97.6102C335.538 98.6502 333.328 99.1702 330.815 99.1702ZM301.825 49.7702C307.718 49.7702 312.182 47.8202 315.215 43.9202C318.248 39.9335 319.765 34.6469 319.765 28.0602C319.765 21.6469 317.988 16.6635 314.435 13.1102C310.968 9.47019 306.158 7.65019 300.005 7.65019C295.412 7.65019 293.115 9.38352 293.115 12.8502V42.6202C293.115 47.3869 296.018 49.7702 301.825 49.7702Z" fill="currentColor"></path>
            <path d="M341.862 98.0002C340.562 98.0002 339.912 97.5235 339.912 96.5702C339.912 95.7902 340.475 95.2702 341.602 95.0102L344.592 94.4902C346.412 94.1435 347.582 93.6669 348.102 93.0602C348.709 92.4535 349.012 91.2402 349.012 89.4202V12.9802C349.012 11.1602 348.709 9.94686 348.102 9.34019C347.582 8.73353 346.412 8.25686 344.592 7.91019L341.602 7.39019C340.475 7.13019 339.912 6.61019 339.912 5.83019C339.912 4.87686 340.562 4.40019 341.862 4.40019H385.542C387.535 4.40019 388.619 5.39686 388.792 7.39019L389.832 28.9702C390.005 30.4435 389.442 31.1802 388.142 31.1802C387.102 31.1802 386.495 30.6169 386.322 29.4902L385.542 24.6802C384.589 18.7869 382.639 14.4969 379.692 11.8102C376.745 9.03686 372.672 7.65019 367.472 7.65019C364.005 7.65019 361.579 8.17019 360.192 9.21019C358.892 10.1635 358.242 11.8969 358.242 14.4102V45.7402C358.242 46.9535 358.849 47.5602 360.062 47.5602H366.562C370.375 47.5602 372.715 45.5235 373.582 41.4502L374.882 34.9502C375.229 33.6502 375.965 33.0869 377.092 33.2602C378.045 33.4335 378.522 34.1702 378.522 35.4702V64.7202C378.522 66.0202 378.045 66.7569 377.092 66.9302C375.965 67.1035 375.229 66.5402 374.882 65.2402L373.582 58.8702C372.975 55.8369 372.109 53.8435 370.982 52.8902C369.942 51.9369 368.425 51.4602 366.432 51.4602H360.062C358.849 51.4602 358.242 52.0669 358.242 53.2802V85.9102C358.242 89.0302 359.022 91.2835 360.582 92.6702C362.229 94.0569 365.175 94.7502 369.422 94.7502C373.755 94.7502 377.439 93.6669 380.472 91.5002C383.592 89.2469 385.759 85.0869 386.972 79.0202L388.532 71.3502C388.792 70.2235 389.442 69.6602 390.482 69.6602C391.695 69.6602 392.215 70.3969 392.042 71.8702L390.742 95.0102C390.569 97.0035 389.485 98.0002 387.492 98.0002H341.862Z" fill="currentColor"></path>
            <path d="M433.778 98.0002C432.478 98.0002 431.828 97.5235 431.828 96.5702C431.828 95.6169 432.392 95.0969 433.518 95.0102L439.368 94.1002C441.102 93.8402 442.272 93.4069 442.878 92.8002C443.485 92.1069 443.788 90.8502 443.788 89.0302V11.0302C443.788 9.81686 443.528 8.95019 443.008 8.4302C442.488 7.91019 441.405 7.65019 439.758 7.65019C436.552 7.65019 433.388 9.03686 430.268 11.8102C427.148 14.5835 425.112 19.0469 424.158 25.2002L423.508 29.4902C423.335 30.6169 422.728 31.1802 421.688 31.1802C420.388 31.1802 419.825 30.4435 419.998 28.9702L421.168 5.4402C421.342 3.44686 422.122 2.4502 423.508 2.4502C424.115 2.4502 424.678 2.62353 425.198 2.9702C425.718 3.23019 426.585 3.53353 427.798 3.88019C429.098 4.22686 431.135 4.40019 433.908 4.40019H462.898C465.672 4.40019 467.665 4.22686 468.878 3.88019C470.178 3.53353 471.088 3.23019 471.608 2.9702C472.215 2.62353 472.778 2.4502 473.298 2.4502C474.685 2.4502 475.465 3.44686 475.638 5.4402L476.808 28.9702C476.982 30.4435 476.418 31.1802 475.118 31.1802C474.078 31.1802 473.472 30.6169 473.298 29.4902L472.648 25.2002C471.782 19.0469 469.788 14.5835 466.668 11.8102C463.548 9.03686 460.342 7.65019 457.048 7.65019C455.402 7.65019 454.318 7.91019 453.798 8.4302C453.278 8.95019 453.018 9.81686 453.018 11.0302V89.0302C453.018 90.8502 453.322 92.1069 453.928 92.8002C454.622 93.4069 455.792 93.8402 457.438 94.1002L463.288 95.0102C464.415 95.0969 464.978 95.6169 464.978 96.5702C464.978 97.5235 464.328 98.0002 463.028 98.0002H433.778Z" fill="currentColor"></path>
            <path d="M482.78 98.0002C481.48 98.0002 480.83 97.5235 480.83 96.5702C480.83 95.7902 481.393 95.2702 482.52 95.0102L485.51 94.4902C487.33 94.1435 488.5 93.6669 489.02 93.0602C489.627 92.4535 489.93 91.2402 489.93 89.4202V12.9802C489.93 11.1602 489.627 9.94686 489.02 9.34019C488.5 8.73353 487.33 8.25686 485.51 7.91019L482.52 7.39019C481.393 7.13019 480.83 6.61019 480.83 5.83019C480.83 4.87686 481.48 4.40019 482.78 4.40019H506.57C507.87 4.40019 508.52 4.92019 508.52 5.9602C508.52 6.74019 508.043 7.21686 507.09 7.39019L503.58 7.91019C501.76 8.17019 500.547 8.64686 499.94 9.34019C499.42 10.0335 499.16 11.2902 499.16 13.1102V45.7402C499.16 46.9535 499.767 47.5602 500.98 47.5602H526.72C527.933 47.5602 528.54 46.9535 528.54 45.7402V13.1102C528.54 11.2902 528.237 10.0335 527.63 9.34019C527.11 8.64686 525.94 8.17019 524.12 7.91019L520.61 7.39019C519.657 7.21686 519.18 6.74019 519.18 5.9602C519.18 4.92019 519.83 4.40019 521.13 4.40019H544.92C546.22 4.40019 546.87 4.87686 546.87 5.83019C546.87 6.61019 546.307 7.13019 545.18 7.39019L542.19 7.91019C540.37 8.25686 539.157 8.73353 538.55 9.34019C538.03 9.94686 537.77 11.1602 537.77 12.9802V89.4202C537.77 91.2402 538.03 92.4535 538.55 93.0602C539.157 93.6669 540.37 94.1435 542.19 94.4902L545.18 95.0102C546.307 95.2702 546.87 95.7902 546.87 96.5702C546.87 97.5235 546.22 98.0002 544.92 98.0002H521.13C519.83 98.0002 519.18 97.4802 519.18 96.4402C519.18 95.6602 519.657 95.1835 520.61 95.0102L524.12 94.4902C525.94 94.2302 527.11 93.7535 527.63 93.0602C528.237 92.3669 528.54 91.1102 528.54 89.2902V53.2802C528.54 52.0669 527.933 51.4602 526.72 51.4602H500.98C499.767 51.4602 499.16 52.0669 499.16 53.2802V89.2902C499.16 91.1102 499.42 92.3669 499.94 93.0602C500.547 93.7535 501.76 94.2302 503.58 94.4902L507.09 95.0102C508.043 95.1835 508.52 95.6602 508.52 96.4402C508.52 97.4802 507.87 98.0002 506.57 98.0002H482.78Z" fill="currentColor"></path>
            <path d="M546.906 98.0002C545.606 98.0002 544.956 97.5669 544.956 96.7002C544.956 95.8335 545.562 95.2702 546.776 95.0102L548.726 94.6202C550.459 94.2735 551.759 93.4502 552.626 92.1502C553.492 90.7635 554.229 88.8569 554.836 86.4302L574.986 5.18019C575.159 4.31353 575.419 3.75019 575.766 3.49019C576.199 3.23019 576.589 3.10019 576.936 3.10019C577.369 3.10019 577.759 3.23019 578.106 3.49019C578.539 3.75019 578.842 4.31353 579.016 5.18019L599.556 87.6002C600.162 90.0269 600.856 91.7169 601.636 92.6702C602.416 93.6235 603.629 94.2735 605.276 94.6202L607.226 95.0102C608.439 95.2702 609.046 95.8335 609.046 96.7002C609.046 97.5669 608.396 98.0002 607.096 98.0002H584.866C583.652 98.0002 583.046 97.5235 583.046 96.5702C583.046 95.6169 583.782 95.0969 585.256 95.0102L587.726 94.7502C589.199 94.5769 590.109 94.1002 590.456 93.3202C590.889 92.5402 590.889 91.1969 590.456 89.2902L585.516 69.1402C584.996 66.8869 583.566 65.7602 581.226 65.7602H567.576C565.322 65.7602 563.892 66.8869 563.286 69.1402L558.866 86.5602C557.566 91.5002 558.866 94.2302 562.766 94.7502L564.716 95.0102C566.189 95.2702 566.926 95.7902 566.926 96.5702C566.926 97.5235 566.319 98.0002 565.106 98.0002H546.906ZM567.186 61.8602H581.486C582.872 61.8602 583.436 61.1235 583.176 59.6502L574.856 24.8102H574.206L565.496 59.6502C565.236 61.1235 565.799 61.8602 567.186 61.8602Z" fill="currentColor"></path>
            <path d="M661.21 99.1702C659.823 99.1702 658.653 98.1302 657.7 96.0502L622.47 19.6102C622.21 19.0035 621.864 18.7435 621.43 18.8302C621.084 18.9169 620.91 19.3069 620.91 20.0002V86.8202C620.91 89.2469 621.3 91.1102 622.08 92.4102C622.947 93.6235 624.463 94.4035 626.63 94.7502L628.32 95.0102C629.447 95.0969 630.01 95.6169 630.01 96.5702C630.01 97.5235 629.36 98.0002 628.06 98.0002H609.47C608.17 98.0002 607.52 97.5235 607.52 96.5702C607.52 95.6169 608.083 95.0969 609.21 95.0102L610.9 94.7502C613.153 94.4035 614.713 93.6235 615.58 92.4102C616.447 91.1102 616.88 89.2469 616.88 86.8202V12.9802C616.88 11.1602 616.577 9.94686 615.97 9.34019C615.45 8.73353 614.193 8.25686 612.2 7.91019L609.21 7.39019C608.083 7.13019 607.52 6.61019 607.52 5.83019C607.52 4.87686 608.17 4.40019 609.47 4.40019H623.38C625.547 4.40019 627.064 5.35353 627.93 7.2602L658.61 74.7302C658.87 75.2502 659.173 75.4669 659.52 75.3802C659.953 75.2935 660.17 74.9902 660.17 74.4702V15.5802C660.17 12.8069 659.694 10.9002 658.74 9.86019C657.787 8.73353 656.573 8.04019 655.1 7.7802L652.76 7.39019C651.633 7.13019 651.07 6.61019 651.07 5.83019C651.07 4.87686 651.72 4.40019 653.02 4.40019H671.61C672.91 4.40019 673.56 4.87686 673.56 5.83019C673.56 6.78353 672.997 7.30353 671.87 7.39019L670.18 7.65019C667.927 7.99686 666.367 8.73353 665.5 9.86019C664.634 10.9002 664.2 12.8069 664.2 15.5802V95.0102C664.2 96.5702 663.897 97.6535 663.29 98.2602C662.77 98.8669 662.077 99.1702 661.21 99.1702Z" fill="currentColor"></path>
            <path d="M9.81875 242.95C7.13208 242.95 4.96542 242.214 3.31875 240.74C1.58542 239.354 0.71875 237.49 0.71875 235.15C0.71875 233.417 1.23875 231.987 2.27875 230.86C3.23208 229.734 4.48875 229.17 6.04875 229.17C7.52208 229.17 8.56208 229.604 9.16875 230.47C9.77542 231.337 10.2521 232.334 10.5988 233.46C11.0321 234.587 11.5088 235.584 12.0288 236.45C12.5488 237.317 13.3721 237.75 14.4988 237.75C16.1454 237.75 17.4021 236.797 18.2688 234.89C19.1354 232.984 19.5688 230.297 19.5688 226.83V129.98C19.5688 128.16 19.2654 126.947 18.6588 126.34C18.1388 125.734 16.9688 125.257 15.1488 124.91L12.1588 124.39C11.0321 124.13 10.4688 123.61 10.4688 122.83C10.4688 121.877 11.1188 121.4 12.4188 121.4H35.9487C37.2487 121.4 37.8988 121.877 37.8988 122.83C37.8988 123.61 37.3354 124.13 36.2088 124.39L33.2188 124.91C31.3988 125.257 30.1854 125.734 29.5788 126.34C29.0588 126.947 28.7988 128.16 28.7988 129.98V209.28C28.7988 219.68 27.1088 227.87 23.7288 233.85C20.3487 239.917 15.7121 242.95 9.81875 242.95Z" fill="currentColor"></path>
            <path d="M75.1062 216.17C70.4262 216.17 66.2662 215.087 62.6262 212.92C59.0728 210.667 56.2995 207.59 54.3062 203.69C52.3128 199.704 51.3162 195.154 51.3162 190.04V129.98C51.3162 128.16 51.0128 126.947 50.4062 126.34C49.8862 125.734 48.7162 125.257 46.8962 124.91L43.9062 124.39C42.7795 124.13 42.2162 123.61 42.2162 122.83C42.2162 121.877 42.8662 121.4 44.1662 121.4H67.9562C69.2562 121.4 69.9062 121.92 69.9062 122.96C69.9062 123.74 69.4295 124.217 68.4762 124.39L64.9662 124.91C63.2328 125.17 62.0628 125.647 61.4562 126.34C60.8495 127.034 60.5462 128.29 60.5462 130.11V190.17C60.5462 196.757 62.0195 201.87 64.9662 205.51C67.9128 209.15 72.0295 210.97 77.3162 210.97C82.6895 210.97 86.8495 209.15 89.7962 205.51C92.7428 201.87 94.2162 196.757 94.2162 190.17V132.71C94.2162 128.03 92.7428 125.43 89.7962 124.91L86.2862 124.39C85.3328 124.217 84.8562 123.74 84.8562 122.96C84.8562 121.92 85.5062 121.4 86.8062 121.4H105.526C106.826 121.4 107.476 121.877 107.476 122.83C107.476 123.61 106.913 124.13 105.786 124.39L102.796 124.91C99.8495 125.43 98.3762 127.987 98.3762 132.58V190.04C98.3762 197.927 96.2528 204.254 92.0062 209.02C87.7595 213.787 82.1262 216.17 75.1062 216.17Z" fill="currentColor"></path>
            <path d="M131.704 216.17C129.971 216.17 128.021 215.997 125.854 215.65C123.774 215.304 121.781 214.87 119.874 214.35C118.054 213.83 116.624 213.267 115.584 212.66C114.977 212.314 114.501 211.967 114.154 211.62C113.894 211.187 113.764 210.494 113.764 209.54L113.114 189.13C113.114 187.397 113.677 186.53 114.804 186.53C115.757 186.53 116.407 187.31 116.754 188.87L117.924 193.81C120.871 206.204 126.374 212.4 134.434 212.4C138.767 212.4 142.191 210.97 144.704 208.11C147.304 205.164 148.604 201.047 148.604 195.76C148.604 190.647 147.261 185.88 144.574 181.46C141.974 177.04 137.771 172.664 131.964 168.33C125.551 163.737 120.871 159.317 117.924 155.07C114.977 150.737 113.504 146.144 113.504 141.29C113.504 134.877 115.714 129.764 120.134 125.95C124.641 122.05 130.361 120.1 137.294 120.1C139.894 120.1 142.407 120.404 144.834 121.01C147.261 121.617 149.254 122.484 150.814 123.61C151.334 123.957 151.724 124.347 151.984 124.78C152.331 125.214 152.504 125.777 152.504 126.47L152.894 146.1C152.894 147.574 152.331 148.31 151.204 148.31C150.424 148.31 149.861 147.704 149.514 146.49L148.604 143.24C146.697 136.567 144.704 131.714 142.624 128.68C140.631 125.56 137.727 124 133.914 124C130.187 124 127.197 125.214 124.944 127.64C122.777 130.067 121.694 133.49 121.694 137.91C121.694 141.637 122.907 145.19 125.334 148.57C127.761 151.95 132.007 156.067 138.074 160.92C144.574 166.207 149.297 171.32 152.244 176.26C155.277 181.114 156.794 186.314 156.794 191.86C156.794 196.714 155.711 200.96 153.544 204.6C151.377 208.24 148.387 211.1 144.574 213.18C140.847 215.174 136.557 216.17 131.704 216.17Z" fill="currentColor"></path>
            <path d="M175.048 215C173.748 215 173.098 214.524 173.098 213.57C173.098 212.617 173.661 212.097 174.788 212.01L180.638 211.1C182.371 210.84 183.541 210.407 184.148 209.8C184.754 209.107 185.058 207.85 185.058 206.03V128.03C185.058 126.817 184.798 125.95 184.278 125.43C183.758 124.91 182.674 124.65 181.028 124.65C177.821 124.65 174.658 126.037 171.538 128.81C168.418 131.584 166.381 136.047 165.428 142.2L164.778 146.49C164.604 147.617 163.998 148.18 162.958 148.18C161.658 148.18 161.094 147.444 161.268 145.97L162.438 122.44C162.611 120.447 163.391 119.45 164.778 119.45C165.384 119.45 165.948 119.624 166.468 119.97C166.988 120.23 167.854 120.534 169.068 120.88C170.368 121.227 172.404 121.4 175.178 121.4H204.168C206.941 121.4 208.934 121.227 210.148 120.88C211.448 120.534 212.358 120.23 212.878 119.97C213.484 119.624 214.048 119.45 214.568 119.45C215.954 119.45 216.734 120.447 216.908 122.44L218.078 145.97C218.251 147.444 217.688 148.18 216.388 148.18C215.348 148.18 214.741 147.617 214.568 146.49L213.918 142.2C213.051 136.047 211.058 131.584 207.938 128.81C204.818 126.037 201.611 124.65 198.318 124.65C196.671 124.65 195.588 124.91 195.068 125.43C194.548 125.95 194.288 126.817 194.288 128.03V206.03C194.288 207.85 194.591 209.107 195.198 209.8C195.891 210.407 197.061 210.84 198.708 211.1L204.558 212.01C205.684 212.097 206.248 212.617 206.248 213.57C206.248 214.524 205.598 215 204.298 215H175.048Z" fill="currentColor"></path>
            <path d="M279.549 216.17C272.529 216.17 266.593 214.177 261.739 210.19C256.886 206.204 253.203 200.614 250.689 193.42C248.176 186.14 246.919 177.56 246.919 167.68C246.919 158.147 248.393 149.827 251.339 142.72C254.286 135.527 258.316 129.98 263.429 126.08C268.629 122.094 274.566 120.1 281.239 120.1C284.619 120.1 287.696 120.447 290.469 121.14C293.243 121.747 295.669 122.57 297.749 123.61C298.876 124.217 299.439 125.127 299.439 126.34L299.829 146.1C299.829 147.574 299.309 148.31 298.269 148.31C297.316 148.31 296.709 147.747 296.449 146.62L295.409 142.72C293.503 135.527 291.336 130.587 288.909 127.9C286.483 125.214 283.146 123.87 278.899 123.87C272.573 123.87 267.329 127.64 263.169 135.18C259.096 142.634 257.059 153.467 257.059 167.68C257.059 182.327 259.139 193.507 263.299 201.22C267.546 208.847 272.963 212.66 279.549 212.66C283.103 212.66 285.789 211.88 287.609 210.32C289.429 208.76 290.339 205.857 290.339 201.61V173.14C290.339 171.32 290.036 170.064 289.429 169.37C288.909 168.677 287.739 168.244 285.919 168.07L280.849 167.55C279.723 167.464 279.159 166.944 279.159 165.99C279.159 165.037 279.809 164.56 281.109 164.56H304.899C306.199 164.56 306.849 165.08 306.849 166.12C306.849 166.9 306.373 167.377 305.419 167.55L303.469 167.81C301.563 168.07 300.436 168.59 300.089 169.37C299.743 170.15 299.569 171.45 299.569 173.27V208.5C299.569 209.454 299.309 210.234 298.789 210.84C298.269 211.36 297.359 211.967 296.059 212.66C293.979 213.7 291.596 214.524 288.909 215.13C286.223 215.824 283.103 216.17 279.549 216.17Z" fill="currentColor"></path>
            <path d="M344.612 216.17C340.452 216.17 336.552 214.957 332.912 212.53C329.272 210.017 326.066 206.594 323.292 202.26C320.606 197.927 318.482 192.857 316.922 187.05C315.449 181.157 314.712 174.83 314.712 168.07C314.712 161.31 315.449 155.027 316.922 149.22C318.482 143.414 320.606 138.344 323.292 134.01C326.066 129.59 329.272 126.167 332.912 123.74C336.552 121.314 340.452 120.1 344.612 120.1C348.772 120.1 352.629 121.314 356.182 123.74C359.822 126.167 363.029 129.59 365.802 134.01C368.576 138.344 370.699 143.414 372.172 149.22C373.732 155.027 374.512 161.31 374.512 168.07C374.512 174.83 373.732 181.157 372.172 187.05C370.699 192.857 368.576 197.927 365.802 202.26C363.029 206.594 359.822 210.017 356.182 212.53C352.629 214.957 348.772 216.17 344.612 216.17ZM344.612 212.66C350.766 212.66 355.576 208.977 359.042 201.61C362.509 194.244 364.242 183.064 364.242 168.07C364.242 153.077 362.509 141.94 359.042 134.66C355.576 127.294 350.766 123.61 344.612 123.61C338.546 123.61 333.736 127.294 330.182 134.66C326.716 141.94 324.982 153.077 324.982 168.07C324.982 183.064 326.716 194.244 330.182 201.61C333.736 208.977 338.546 212.66 344.612 212.66Z" fill="currentColor"></path>
            <path d="M382.868 215C381.568 215 380.918 214.524 380.918 213.57C380.918 212.79 381.481 212.27 382.608 212.01L385.598 211.49C387.418 211.144 388.588 210.667 389.108 210.06C389.715 209.454 390.018 208.24 390.018 206.42V129.98C390.018 128.16 389.715 126.947 389.108 126.34C388.588 125.734 387.418 125.257 385.598 124.91L382.608 124.39C381.481 124.13 380.918 123.61 380.918 122.83C380.918 121.877 381.568 121.4 382.868 121.4H406.658C407.958 121.4 408.608 121.92 408.608 122.96C408.608 123.74 408.131 124.217 407.178 124.39L403.668 124.91C401.848 125.17 400.635 125.647 400.028 126.34C399.508 127.034 399.248 128.29 399.248 130.11V202.91C399.248 206.03 400.115 208.284 401.848 209.67C403.668 211.057 405.921 211.75 408.608 211.75C410.601 211.75 412.638 211.36 414.718 210.58C416.885 209.714 418.835 208.154 420.568 205.9C422.301 203.56 423.601 200.18 424.468 195.76L426.158 187.05C426.418 185.924 427.068 185.36 428.108 185.36C429.321 185.36 429.841 186.097 429.668 187.57L428.108 212.01C427.935 214.004 426.851 215 424.858 215H382.868Z" fill="currentColor"></path>
            <path d="M436.569 215C435.269 215 434.619 214.524 434.619 213.57C434.619 212.79 435.182 212.27 436.309 212.01L439.299 211.49C441.119 211.144 442.289 210.667 442.809 210.06C443.416 209.454 443.719 208.24 443.719 206.42V129.98C443.719 128.16 443.416 126.947 442.809 126.34C442.289 125.734 441.119 125.257 439.299 124.91L436.309 124.39C435.182 124.13 434.619 123.61 434.619 122.83C434.619 121.877 435.269 121.4 436.569 121.4H478.429C480.422 121.4 481.506 122.397 481.679 124.39L482.719 145.97C482.892 147.444 482.329 148.18 481.029 148.18C479.989 148.18 479.382 147.617 479.209 146.49L478.559 142.2C477.866 137.694 476.652 134.184 474.919 131.67C473.186 129.157 471.236 127.38 469.069 126.34C466.902 125.214 464.822 124.65 462.829 124.65C459.016 124.65 456.416 125.257 455.029 126.47C453.642 127.684 452.949 129.547 452.949 132.06V162.74C452.949 163.954 453.556 164.56 454.769 164.56H459.319C463.132 164.56 465.472 162.524 466.339 158.45L467.769 151.95C468.029 150.824 468.679 150.26 469.719 150.26C470.759 150.26 471.279 150.997 471.279 152.47V181.72C471.279 183.194 470.759 183.93 469.719 183.93C468.679 183.93 468.029 183.367 467.769 182.24L466.339 175.87C465.732 172.837 464.866 170.844 463.739 169.89C462.699 168.937 461.182 168.46 459.189 168.46H454.769C453.556 168.46 452.949 169.067 452.949 170.28V205.77C452.949 207.59 453.209 208.89 453.729 209.67C454.336 210.364 455.549 210.84 457.369 211.1L463.479 212.01C464.432 212.184 464.909 212.66 464.909 213.44C464.909 214.48 464.259 215 462.959 215H436.569Z" fill="currentColor"></path>
            <path d="M83.7341 25.2469C83.7341 25.1232 83.8164 25.0092 83.9348 24.9734C86.4709 24.1725 88.3557 22.0463 88.8261 19.4448L89.2405 17.1526C89.2635 17.0321 89.3688 16.9409 89.4938 16.9409C89.6188 16.9409 89.7241 17.0288 89.7471 17.1526L90.1615 19.4448C90.6319 22.0496 92.5167 24.1725 95.0528 24.9734C95.1745 25.0125 95.2535 25.1232 95.2535 25.2469C95.2535 25.3707 95.1712 25.4846 95.0528 25.5204C92.5167 26.3214 90.6319 28.4476 90.1615 31.0491L89.7471 33.3413C89.7241 33.4618 89.6188 33.5529 89.4938 33.5529C89.3688 33.5529 89.2635 33.465 89.2405 33.3413L88.8261 31.0491C88.3557 28.4443 86.4709 26.3214 83.9348 25.5204C83.8131 25.4814 83.7341 25.3707 83.7341 25.2469Z" fill="currentColor"></path>
            <path d="M12.6444 25.2469C12.6444 25.1232 12.7266 25.0092 12.845 24.9734C15.3811 24.1725 17.2659 22.0463 17.7363 19.4448L18.1508 17.1526C18.1738 17.0321 18.2791 16.9409 18.404 16.9409C18.529 16.9409 18.6343 17.0288 18.6573 17.1526L19.0718 19.4448C19.5422 22.0496 21.427 24.1725 23.9631 24.9734C24.0848 25.0125 24.1637 25.1232 24.1637 25.2469C24.1637 25.3707 24.0815 25.4846 23.9631 25.5204C21.427 26.3214 19.5422 28.4476 19.0718 31.0491L18.6573 33.3413C18.6343 33.4618 18.529 33.5529 18.404 33.5529C18.2791 33.5529 18.1738 33.465 18.1508 33.3413L17.7363 31.0491C17.2659 28.4443 15.3811 26.3214 12.845 25.5204C12.7233 25.4814 12.6444 25.3707 12.6444 25.2469Z" fill="currentColor"></path>
            <path d="M4 63.1757C4 63.052 4.08223 62.938 4.20065 62.9022C6.73675 62.1013 8.62155 59.9751 9.09193 57.3736L9.50639 55.0814C9.52942 54.9609 9.63468 54.8697 9.75967 54.8697C9.88467 54.8697 9.98993 54.9576 10.013 55.0814L10.4274 57.3736C10.8978 59.9784 12.7826 62.1013 15.3187 62.9022C15.4404 62.9413 15.5193 63.052 15.5193 63.1757C15.5193 63.2995 15.4371 63.4134 15.3187 63.4492C12.7826 64.2502 10.8978 66.3764 10.4274 68.9779L10.013 71.2701C9.98993 71.3906 9.88467 71.4817 9.75967 71.4817C9.63468 71.4817 9.52942 71.3938 9.50639 71.2701L9.09193 68.9779C8.62155 66.3731 6.73675 64.2502 4.20065 63.4492C4.07894 63.4102 4 63.2995 4 63.1757Z" fill="currentColor"></path>
            <path d="M92.4807 63.1757C92.4807 63.052 92.5629 62.938 92.6813 62.9022C95.2174 62.1013 97.1022 59.9751 97.5726 57.3736L97.987 55.0814C98.0101 54.9609 98.1153 54.8697 98.2403 54.8697C98.3653 54.8697 98.4706 54.9576 98.4936 55.0814L98.9081 57.3736C99.3784 59.9784 101.263 62.1013 103.799 62.9022C103.921 62.9413 104 63.052 104 63.1757C104 63.2995 103.918 63.4134 103.799 63.4492C101.263 64.2502 99.3784 66.3764 98.9081 68.9779L98.4936 71.2701C98.4706 71.3906 98.3653 71.4817 98.2403 71.4817C98.1153 71.4817 98.0101 71.3938 97.987 71.2701L97.5726 68.9779C97.1022 66.3731 95.2174 64.2502 92.6813 63.4492C92.5596 63.4102 92.4807 63.2995 92.4807 63.1757Z" fill="currentColor"></path>
            <path d="M67.9551 93.694C67.9551 93.5703 68.0374 93.4563 68.1558 93.4205C70.6919 92.6195 72.5767 90.4934 73.0471 87.8918L73.4615 85.5996C73.4846 85.4792 73.5898 85.388 73.7148 85.388C73.8398 85.388 73.9451 85.4759 73.9681 85.5996L74.3826 87.8918C74.8529 90.4966 76.7377 92.6195 79.2738 93.4205C79.3955 93.4596 79.4745 93.5703 79.4745 93.694C79.4745 93.8177 79.3923 93.9317 79.2738 93.9675C76.7377 94.7685 74.8529 96.8946 74.3826 99.4962L73.9681 101.788C73.9451 101.909 73.8398 102 73.7148 102C73.5898 102 73.4846 101.912 73.4615 101.788L73.0471 99.4962C72.5767 96.8914 70.6919 94.7685 68.1558 93.9675C68.0341 93.9284 67.9551 93.8177 67.9551 93.694Z" fill="currentColor"></path>
            <path d="M28.4267 93.694C28.4267 93.5703 28.509 93.4563 28.6274 93.4205C31.1635 92.6195 33.0483 90.4934 33.5187 87.8918L33.9331 85.5996C33.9561 85.4792 34.0614 85.388 34.1864 85.388C34.3114 85.388 34.4167 85.4759 34.4397 85.5996L34.8541 87.8918C35.3245 90.4966 37.2093 92.6195 39.7454 93.4205C39.8671 93.4596 39.9461 93.5703 39.9461 93.694C39.9461 93.8177 39.8638 93.9317 39.7454 93.9675C37.2093 94.7685 35.3245 96.8946 34.8541 99.4962L34.4397 101.788C34.4167 101.909 34.3114 102 34.1864 102C34.0614 102 33.9561 101.912 33.9331 101.788L33.5187 99.4962C33.0483 96.8914 31.1635 94.7685 28.6274 93.9675C28.5057 93.9284 28.4267 93.8177 28.4267 93.694Z" fill="currentColor"></path>
            <path d="M48.2419 8.306C48.2419 8.18227 48.3242 8.06831 48.4426 8.0325C50.9787 7.23153 52.8635 5.10537 53.3339 2.50385L53.7483 0.211639C53.7714 0.0911674 53.8766 0 54.0016 0C54.1266 0 54.2319 0.0879114 54.2549 0.211639L54.6693 2.50385C55.1397 5.10863 57.0245 7.23153 59.5606 8.0325C59.6823 8.07157 59.7613 8.18227 59.7613 8.306C59.7613 8.42973 59.679 8.54368 59.5606 8.5795C57.0245 9.38047 55.1397 11.5066 54.6693 14.1081L54.2549 16.4004C54.2319 16.5208 54.1266 16.612 54.0016 16.612C53.8766 16.612 53.7714 16.5241 53.7483 16.4004L53.3339 14.1081C52.8635 11.5034 50.9787 9.38047 48.4426 8.5795C48.3209 8.54043 48.2419 8.42973 48.2419 8.306Z" fill="currentColor"></path>
          </svg>