<svg xmlns="http://www.w3.org/2000/svg" width="100%" viewBox="0 0 44 62" fill="none">
            <path d="M43.5865 27.1911L43.5851 27.1837C43.0669 24.234 42.0392 21.5482 40.5263 19.1946C40.479 19.1255 39.3637 17.4908 38.9145 16.8999C37.8703 15.5254 36.7485 14.4449 35.3756 13.5055C34.6781 13.0285 34.2374 12.2449 34.2015 11.3857C34.1965 11.2717 34.1922 11.1747 34.1886 11.1041C34.1441 10.2985 34.0752 9.31286 34.0314 8.6947C34.0092 8.38011 33.9934 8.15078 33.9891 8.07213C33.8944 6.16913 33.2183 4.45577 32.1346 3.37159C31.5799 2.81664 27.6112 0 22.1296 0C19.2424 0 17.891 0.195519 15.0656 1.41861C14.6586 1.59502 13.5362 1.62663 12.8824 1.48036C12.2559 1.33996 11.7987 1.30174 11.2519 1.34364L11.1887 1.34805C10.7789 1.37819 10.1596 1.42449 10.1029 1.98385C10.0799 2.20951 10.2191 2.43663 10.3411 2.6373C10.3828 2.70566 10.4222 2.77107 10.4473 2.82253C10.4961 2.92543 10.5442 3.00775 10.5902 3.08787C10.8284 3.50243 11.0531 3.85966 11.0645 6.91372C11.0681 7.8009 11.254 8.45434 11.188 10.6874C11.1485 12.0244 9.6737 13.099 9.1175 13.5106C9.03282 13.5738 8.96536 13.6231 8.91799 13.6576C6.6523 15.2924 4.7921 17.2865 3.39049 19.5849C2.01759 21.8363 0.901611 24.395 0.412878 27.1903C-0.365795 31.6432 -0.0421255 35.8078 1.37599 39.5675C3.01156 43.9042 4.14189 45.7109 7.27381 48.7643C7.96349 49.4368 9.1864 50.3145 9.95287 50.7577C10.2615 50.9363 11.0645 51.6228 11.0624 52.5798C11.0588 54.0991 11.2059 54.9158 10.7416 56.1955C10.4179 57.0885 9.55959 57.839 9.89546 58.3344C10.1488 58.7078 11.1126 58.6203 11.5303 58.7343C12.1504 58.9026 12.0585 58.9628 13.7924 59.7861C13.9237 59.8486 14.8976 60.2168 15.2837 60.2874C15.5995 60.3454 16.6774 60.4638 16.9021 60.1984C17.1597 59.8934 16.9968 59.445 16.7198 59.1209C16.5411 58.9121 15.9957 58.2734 15.7911 57.3009C15.7122 56.9246 15.7079 56.2204 15.7072 54.6967C15.7072 54.5894 15.6784 54.2755 15.738 53.8926C15.8406 53.2377 16.7987 53.4692 16.9667 53.5045C18.1802 53.7551 19.3386 53.969 20.4423 54.0411C21.0689 54.0822 21.6875 54.0933 22.1289 54.0933C22.4877 54.0933 22.7303 54.0859 22.7647 54.08C23.008 54.0425 23.2183 54.0234 23.4042 54.0073C23.8836 53.9639 24.889 53.7272 25.0555 52.5879L25.0634 52.4879C25.1861 51.0465 25.0283 50.1851 24.5359 49.6066C24.1807 49.1891 24.0321 49.0237 23.2011 48.9811C23.0992 48.976 22.6183 48.9495 22.4626 48.9554C21.9466 48.9745 21.0825 49.0068 19.5345 48.7606C16.549 48.2865 13.9001 47.2457 11.4377 45.5786C9.44404 44.2299 8.49815 42.4239 7.27811 40.2107C6.12625 38.121 5.39136 35.7174 5.15309 33.258C4.9098 30.7449 5.18897 28.2855 5.98344 25.9481C6.75278 23.685 7.28098 22.514 8.90435 20.7492C9.17563 20.4545 9.45696 20.1744 9.74188 19.9091C10.2837 19.4056 11.1004 19.2358 11.0897 19.9848C11.0803 20.6287 11.1205 21.6768 11.1105 22.3266C11.0351 27.291 10.9576 31.7277 10.9727 33.5182C10.9827 34.7171 10.9928 35.508 11.0035 36.3452C11.0122 37.0074 11.0208 37.7042 11.0308 38.6642C11.0488 40.5606 11.4047 42.465 14.0579 43.4368C14.4153 43.6749 14.7369 43.5691 14.8596 43.511C15.4352 43.2412 15.5895 43.1905 15.6002 40.9075C15.6002 40.8097 15.6009 40.7274 15.6024 40.6627C15.6103 40.063 15.6167 39.6918 15.6225 39.3639C15.6311 38.884 15.6375 38.5047 15.6447 37.6454C15.6598 35.7248 15.7093 33.7387 15.7093 31.7872C15.7093 30.7001 16.6588 30.961 16.8927 31.0919C18.1293 31.7865 19.4785 31.996 21.1378 32.8795C26.4169 35.6866 28.5463 37.3301 28.936 41.9219C29.0644 43.4331 28.9805 45.4199 28.9424 46.457C28.8642 48.5805 28.7171 50.6959 28.8872 54.0499C29.002 56.3094 29.6745 58.1528 30.9806 59.7993C32.3155 61.4818 33.5937 61.7185 35.5414 61.9449C35.7467 61.9691 36.0022 62 36.2864 62C37.4095 62 38.6999 61.4958 38.9525 60.0816C38.9676 59.997 38.9826 59.914 38.9977 59.8317C39.1585 58.9533 38.9475 57.861 38.5061 57.2914C38.2111 56.9099 37.7475 56.71 37.0894 56.6806C36.5591 56.6571 35.9605 56.8268 35.6412 57.1576C35.1575 57.6574 35.2393 58.2161 35.2608 58.5586C35.2974 59.1407 34.9802 59.2539 34.8194 59.1238C34.1384 58.5747 33.4006 56.4792 33.2965 55.0392C33.1989 53.6853 33.1745 54.0683 33.2162 53.0172C33.2499 52.1623 32.8975 51.4273 34.7713 49.8911C36.9925 48.0704 38.7645 46.5643 40.5278 43.6874C40.5472 43.6617 40.5651 43.6337 40.5809 43.6051C43.6461 38.8362 44.6573 33.3131 43.5865 27.1889V27.1911ZM33.6568 41.9829C33.514 38.1166 32.6305 36.5929 31.4277 34.5201C31.2282 34.1753 31.0215 33.8196 30.8069 33.4337C30.4747 32.8346 30.4983 32.8008 30.8931 32.2341C31.1399 31.8798 31.5138 31.3447 31.9717 30.4127C32.9061 28.5134 33.3087 26.7368 33.6037 25.1006C34.0652 22.5751 33.1602 21.044 30.9203 20.55C30.6404 20.4802 30.3634 20.5295 30.1208 20.6941C29.6235 21.03 29.5661 21.743 29.48 22.822C29.4391 23.3307 29.3931 23.9062 29.2934 24.567C29.1979 25.2013 28.9374 25.9025 28.7078 26.5214C28.674 26.6133 28.6403 26.7037 28.608 26.7919C28.2104 27.8776 27.5745 28.6258 26.7169 29.0154C25.7431 29.4579 23.7931 29.2719 22.8788 28.8096C21.0158 27.8688 19.241 26.8287 17.5788 25.8827C16.1514 25.0698 15.7021 21.7533 15.7072 20.2553C15.7237 15.7966 15.7926 11.2328 15.8471 6.8755V6.79832C15.8571 6.13605 16.2971 5.62814 17.0879 5.36721C19.5503 4.555 20.7746 4.31832 22.5458 4.3117C22.5566 4.3117 22.5681 4.3117 22.5788 4.3117C24.5675 4.3117 26.1665 4.95191 27.159 5.49069C28.3123 6.11621 29.096 6.86447 29.2489 7.25036C29.2819 7.33342 29.3185 7.41721 29.358 7.50689C29.5331 7.90601 29.7642 8.43229 29.8567 9.51573C29.8567 9.5172 29.8567 9.51941 29.8567 9.52161C29.8984 10.0288 29.2453 10.4014 28.5599 10.1861C27.8422 9.96043 27.4296 9.91632 26.5519 9.79504C26.3258 9.76344 26.0761 9.72081 25.8112 9.67523C25.0871 9.55028 24.2668 9.40915 23.3439 9.39078C22.1841 9.36799 20.6641 9.43929 20.0117 9.91412C19.6996 10.1412 19.3701 10.422 19.2984 10.7807C19.0687 11.92 19.0931 12.658 19.3859 13.4121C19.6658 14.1332 20.4811 14.5235 21.8791 14.6058C22.0994 14.6191 22.3061 14.6147 22.4992 14.6095C25.123 14.5353 27.4346 14.7756 30.1905 16.1898C32.6442 17.4489 34.5245 18.7514 36.3122 21.3483C37.6758 23.3292 38.1279 25.5277 38.3209 26.4663C38.3504 26.6097 38.3748 26.728 38.3963 26.8169C39.3365 30.7677 39.2676 36.3995 37.4231 39.322C37.1583 39.7417 36.9552 40.1034 36.5081 40.9987C36.3222 41.3713 35.2472 42.8759 34.5051 43.5661C33.8355 44.1887 33.6346 43.5529 33.669 42.9002C33.6776 42.7392 33.6625 42.1659 33.6561 41.9858L33.6568 41.9829Z" fill="#050FFF"></path>
          </svg>